<?xml version="1.0" encoding="UTF-8"?><!DOCTYPE svg PUBLIC "-//W3C//DTD SVG 1.1//EN" "http://www.w3.org/Graphics/SVG/1.1/DTD/svg11.dtd"><svg xmlns="http://www.w3.org/2000/svg"><symbol id="check" viewBox="0 0 448.8 448.8"><path d="M142.8 323.85L35.7 216.75 0 252.45l142.8 142.8 306-306-35.7-35.7z"/></symbol><symbol id="envelope" viewBox="0 0 612 612"><path d="M306.768 346.814h.131c4.615 0 9.176-1.339 12.866-3.777l1.001-.643c.218-.142.446-.271.675-.424l11.658-9.645 278.259-229.624c-.576-.795-1.557-1.339-2.602-1.339H3.233c-.751 0-1.448.272-2.003.729l291.125 239.954c3.669 3.038 8.904 4.769 14.413 4.769zM0 133.899v340.37l208.55-168.471L0 133.899zm403.668 173.042L612 474.356V135.031l-208.332 171.91zm-66.237 54.644c-8.305 6.814-19.168 10.57-30.576 10.57-11.451 0-22.304-3.734-30.587-10.516l-47.765-39.394L0 506.806v.587c0 1.753 1.502 3.244 3.276 3.244h605.491c1.741 0 3.232-1.491 3.232-3.255v-.544L383.693 323.4l-46.262 38.185z"/></symbol><symbol id="facebook" viewBox="0 0 8.673 18.944"><path d="M6.275 3.357h2.398V0H5.795C2.656.181 1.54 2.387 1.948 6.115H0v3.517h1.958v9.312h3.837V9.632h2.857V6.115H5.786c-.021-1.045-.036-2.406.489-2.758z"/></symbol><symbol id="google+" viewBox="0 0 96.828 96.827"><path d="M62.617 0H39.525c-10.29 0-17.413 2.256-23.824 7.552-5.042 4.35-8.051 10.672-8.051 16.912 0 9.614 7.33 19.831 20.913 19.831 1.306 0 2.752-.134 4.028-.253l-.188.457c-.546 1.308-1.063 2.542-1.063 4.468 0 3.75 1.809 6.063 3.558 8.298l.22.283-.391.027c-5.609.384-16.049 1.1-23.675 5.787-9.007 5.355-9.707 13.145-9.707 15.404 0 8.988 8.376 18.06 27.09 18.06 21.76 0 33.146-12.005 33.146-23.863.002-8.771-5.141-13.101-10.6-17.698l-4.605-3.582c-1.423-1.179-3.195-2.646-3.195-5.364 0-2.672 1.772-4.436 3.336-5.992l.163-.165c4.973-3.917 10.609-8.358 10.609-17.964 0-9.658-6.035-14.649-8.937-17.048h7.663a.488.488 0 0 0 .266-.077l6.601-4.15A.5.5 0 0 0 62.617 0zM34.614 91.535c-13.264 0-22.176-6.195-22.176-15.416 0-6.021 3.645-10.396 10.824-12.997 5.749-1.935 13.17-2.031 13.244-2.031 1.257 0 1.889 0 2.893.126 9.281 6.605 13.743 10.073 13.743 16.678-.001 8.414-7.101 13.64-18.528 13.64zm-.125-50.779c-11.132 0-15.752-14.633-15.752-22.468 0-3.984.906-7.042 2.77-9.351 2.023-2.531 5.487-4.166 8.825-4.166 10.221 0 15.873 13.738 15.873 23.233 0 1.498 0 6.055-3.148 9.22-2.117 2.113-5.56 3.532-8.568 3.532zM94.982 45.223H82.814V33.098a.5.5 0 0 0-.5-.5H77.08a.5.5 0 0 0-.5.5v12.125H64.473a.5.5 0 0 0-.5.5v5.304a.5.5 0 0 0 .5.5H76.58V63.73a.5.5 0 0 0 .5.5h5.234c.275 0 .5-.225.5-.5V51.525h12.168a.5.5 0 0 0 .5-.5v-5.302c0-.277-.223-.5-.5-.5z"/></symbol><symbol id="instagram" viewBox="0 0 290 290"><path d="M250.626 0H39.374C17.663 0 0 17.663 0 39.374v211.252C0 272.338 17.663 290 39.374 290h211.252C272.337 290 290 272.338 290 250.626V39.374C290 17.663 272.337 0 250.626 0zM145 215.846c-35.762 0-64.856-29.094-64.856-64.856 0-35.761 29.095-64.856 64.856-64.856s64.856 29.095 64.856 64.856c0 35.762-29.094 64.856-64.856 64.856zm120.447-112.731H206.85C192.058 85.407 169.823 74.122 145 74.122s-47.058 11.286-61.85 28.993H24.553V46.804c0-14.313 11.645-25.957 25.958-25.957H239.49c14.313 0 25.958 11.644 25.958 25.957v56.311z"/><path d="M145 109.296c-22.989 0-41.694 18.704-41.694 41.693 0 22.99 18.704 41.693 41.694 41.693s41.694-18.703 41.694-41.693c0-22.989-18.705-41.693-41.694-41.693zM233.488 37.491h-25.093c-5.735 0-10.401 4.667-10.401 10.402v25.093c0 5.735 4.665 10.401 10.401 10.401h25.093c5.735 0 10.401-4.665 10.401-10.401V47.893c0-5.736-4.666-10.402-10.401-10.402z"/></symbol><symbol id="left-arrow" viewBox="0 0 370.814 370.814"><path d="M292.92 24.848L268.781 0 77.895 185.401l190.886 185.413 24.139-24.853-165.282-160.56z"/></symbol><symbol id="pinterest" viewBox="0 0 100.001 100.001"><path d="M43.081 66.14c-2.626 13.767-5.833 26.966-15.333 33.861-2.932-20.809 4.307-36.436 7.668-53.027-5.73-9.646.689-29.062 12.777-24.277 14.873 5.885-12.881 35.865 5.75 39.611 19.453 3.908 27.395-33.752 15.332-46-17.428-17.684-50.733-.403-46.637 24.916.996 6.191 7.391 8.068 2.555 16.611-11.154-2.473-14.484-11.27-14.055-23 .69-19.197 17.25-32.639 33.86-34.498 21.006-2.352 40.721 7.711 43.443 27.471 3.066 22.303-9.48 46.459-31.943 44.721-6.088-.473-8.645-3.489-13.417-6.389z" fill="#030104"/></symbol><symbol id="right-arrow" viewBox="0 0 375.39 375.39"><path d="M59.615 368.59c3.4 4.533 8.5 6.8 13.6 6.8 3.4 0 7.083-1.133 10.2-3.4l228.933-170.85c4.25-3.117 6.8-8.217 6.8-13.6s-2.55-10.483-6.8-13.6L83.415 3.373c-7.65-5.667-18.133-3.967-23.8 3.4-5.667 7.65-3.967 18.133 3.4 23.8l210.8 157.25-210.8 157.25c-7.367 5.383-9.067 16.15-3.4 23.517z"/></symbol><symbol id="rss" viewBox="0 0 486.392 486.392"><g fill="#010002"><path d="M.182 0v93.266c216.505 0 392.7 176.378 392.7 393.126h93.509C486.392 218.268 268.245 0 .182 0z"/><path d="M.061 165.221v93.235c60.708 0 117.768 23.742 160.752 66.757 42.924 42.894 66.636 100.227 66.636 161.178h93.661c0-177.107-144.063-321.17-321.049-321.17z"/><path d="M64.751 356.647C29.031 356.647 0 385.739 0 421.245c0 35.719 29.031 64.538 64.751 64.538 35.841 0 64.842-28.819 64.842-64.538-.03-35.445-29.001-64.598-64.842-64.598z"/></g></symbol><symbol id="smartphone" viewBox="0 0 537.871 537.871"><path d="M399.827 0H138.044c-11.857 0-21.497 9.562-21.497 21.497v494.878c0 11.857 9.716 21.496 21.497 21.496h261.783c11.857 0 21.496-9.562 21.496-21.496V21.573C421.323 9.716 411.685 0 399.827 0zM268.936 17.978c8.95 0 16.141 7.191 16.141 16.142s-7.191 16.142-16.141 16.142c-8.951 0-16.142-7.191-16.142-16.142s7.191-16.142 16.142-16.142zm.841 501.993a22.43 22.43 0 0 1-22.491-22.49 22.43 22.43 0 0 1 22.491-22.492 22.43 22.43 0 0 1 22.491 22.492c.001 12.468-10.097 22.49-22.491 22.49zm124.695-80.631a10.773 10.773 0 0 1-10.785 10.787h-229.5A10.775 10.775 0 0 1 143.4 439.34V78.948c0-5.967 4.82-10.787 10.787-10.787h229.5a10.773 10.773 0 0 1 10.785 10.787V439.34z"/></symbol><symbol id="telephone" viewBox="0 0 30 30"><path d="M23.71 26.301l-1.633-1.633c5.33-5.33 5.33-14.004 0-19.334l1.632-1.633c6.23 6.232 6.23 16.368.001 22.6zm-2.822-19.78l-1.633 1.631c3.776 3.776 3.776 9.92 0 13.696l1.635 1.631c4.672-4.673 4.672-12.284-.002-16.958zm-2.912 2.913l-1.633 1.634a5.57 5.57 0 0 1 0 7.869l1.633 1.633c3.069-3.071 3.069-8.068 0-11.136zM1.938 8.445a101.548 101.548 0 0 0-.309 6.383h-.01c.001.058.005.114.005.172 0 .059-.004.115-.005.171h.011c.038 2.13.137 4.26.309 6.384.445 5.56 4.814 9.252 9.098 8.294.188-.038.384-.04.561-.112 1.043-.434 1.907-1.241 2.87-1.837 1.228-.77-1.419-7.3-3.059-6.457-.606.316-2.28 1.553-2.953 1.646-.601.084-1.071-.711-1.131-1.445-.157-1.938-.015-4.414-.003-6.472h.003l-.001-.171.001-.171h-.004c-.012-2.058-.154-4.534.003-6.472.06-.735.53-1.531 1.131-1.445.673.093 2.347 1.33 2.953 1.646 1.64.843 4.286-5.689 3.059-6.457-.963-.597-1.827-1.405-2.87-1.837-.177-.074-.374-.075-.561-.113-4.284-.959-8.652 2.734-9.098 8.293z"/></symbol><symbol id="tumblr" viewBox="0 0 438.542 438.543"><path d="M288.078 367.164c-12.748 0-23.887-2.95-33.4-8.85-7.427-4.381-12.368-10.089-14.842-17.132-2.673-6.852-4.001-23.223-4.001-49.115V179.58h103.921v-68.806H235.834V0h-62.53c-2.856 22.458-7.992 41.109-15.415 55.963-7.424 14.655-17.227 27.218-29.408 37.685-12.183 10.282-26.934 18.276-44.255 23.984v61.955h48.535v153.889c0 20.365 2.096 35.69 6.28 45.967 3.999 10.283 11.519 20.272 22.557 29.981 11.419 9.514 24.554 16.652 39.399 21.406 15.418 5.14 33.12 7.713 53.105 7.713 18.274 0 34.735-1.813 49.392-5.428 14.466-3.237 31.409-9.424 50.823-18.562V345.46c-21.892 14.473-43.968 21.704-66.239 21.704z"/></symbol><symbol id="twitter" viewBox="0 0 17.5 14.663"><path fill-rule="evenodd" clip-rule="evenodd" d="M11.283.153c1.736-.485 3.074.263 3.685 1.151.694-.226 1.372-.47 2.072-.691-.004.841-.538 1.478-.883 1.727.704.166 1.343-.48 1.343-.48-.175.976-1.035 1.746-1.611 1.977-.239 6.592-3.272 10.956-10.382 10.823h-.46c-.422 0-4.29-.45-5.047-1.843 2.341.192 4.011-.412 4.835-1.15-.989-.293-2.761-.464-3.07-2.881.362.105.583.223 1.228.117C1.757 8.067.385 7.366.461 5.218c.294.32 1.1.523 1.381.461C1.117 5.444-.188 2.398.921.843 2.794 2.654 4.769 4.364 8.29 4.528 8.506 2.288 9.461.787 11.283.153z"/></symbol></svg>