<?xml version="1.0" encoding="iso-8859-1"?>
<!-- Generator: Adobe Illustrator 16.0.0, SVG Export Plug-In . SVG Version: 6.00 Build 0)  -->
<!DOCTYPE svg PUBLIC "-//W3C//DTD SVG 1.1//EN" "http://www.w3.org/Graphics/SVG/1.1/DTD/svg11.dtd">
<svg version="1.1" id="Capa_1" xmlns="http://www.w3.org/2000/svg" xmlns:xlink="http://www.w3.org/1999/xlink" x="0px" y="0px"
	 width="537.871px" height="537.871px" viewBox="0 0 537.871 537.871" style="enable-background:new 0 0 537.871 537.871;"
	 xml:space="preserve">
<g>
	<path d="M399.827,0H138.044c-11.857,0-21.497,9.562-21.497,21.497v494.878c0,11.857,9.716,21.496,21.497,21.496h261.783
		c11.857,0,21.496-9.562,21.496-21.496V21.573C421.323,9.716,411.685,0,399.827,0z M268.936,17.978
		c8.95,0,16.141,7.191,16.141,16.142s-7.191,16.142-16.141,16.142c-8.951,0-16.142-7.191-16.142-16.142
		S259.985,17.978,268.936,17.978z M269.777,519.971c-12.469,0-22.491-10.021-22.491-22.49c0-12.471,10.021-22.492,22.491-22.492
		c12.47,0,22.491,10.021,22.491,22.492C292.269,509.949,282.171,519.971,269.777,519.971z M394.472,439.34
		c0,5.967-4.818,10.787-10.785,10.787h-229.5c-5.967,0-10.787-4.82-10.787-10.787V78.948c0-5.967,4.82-10.787,10.787-10.787h229.5
		c5.967,0,10.785,4.819,10.785,10.787V439.34z"/>
</g>
<g>
</g>
<g>
</g>
<g>
</g>
<g>
</g>
<g>
</g>
<g>
</g>
<g>
</g>
<g>
</g>
<g>
</g>
<g>
</g>
<g>
</g>
<g>
</g>
<g>
</g>
<g>
</g>
<g>
</g>
</svg>
